<svg width="50" height="51" viewBox="0 0 50 51" fill="none" xmlns="http://www.w3.org/2000/svg">
<g clip-path="url(#clip0_402_173)">
<path d="M0 25.8182C0 28.8762 0.550098 31.8055 1.55498 34.5138L25 36.6877L48.445 34.5138C49.4499 31.8055 50 28.8762 50 25.8182C50 22.7602 49.4499 19.8309 48.445 17.1226L25 14.9487L1.55498 17.1226C0.550098 19.8309 0 22.7602 0 25.8182H0Z" fill="#FFDA44"/>
<path d="M48.445 17.1226C44.9126 7.60265 35.7491 0.818176 25 0.818176C14.2508 0.818176 5.08726 7.60265 1.55493 17.1226H48.445Z" fill="#D80027"/>
<path d="M1.55493 34.5138C5.08726 44.0337 14.2508 50.8182 25 50.8182C35.7491 50.8182 44.9126 44.0337 48.445 34.5138H1.55493Z" fill="#D80027"/>
</g>
<defs>
<clipPath id="clip0_402_173">
<rect width="50" height="50" fill="white" transform="translate(0 0.818176)"/>
</clipPath>
</defs>
</svg>
