<svg width="50" height="51" viewBox="0 0 50 51" fill="none" xmlns="http://www.w3.org/2000/svg">
<g clip-path="url(#clip0_402_165)">
<path d="M0 25.8182C0 12.0111 11.193 0.818176 25 0.818176C38.807 0.818176 50 12.0111 50 25.8182L25 27.9921L0 25.8182Z" fill="#FFDA44"/>
<path d="M3.34534 38.3182C7.66809 45.7904 15.7466 50.8182 25 50.8182C34.2534 50.8182 42.332 45.7904 46.6547 38.3182L25 36.6877L3.34534 38.3182Z" fill="#D80027"/>
<path d="M46.6547 38.3182C48.7818 34.641 50 30.372 50 25.8182H0C0 30.372 1.21816 34.641 3.34531 38.3182H46.6547Z" fill="#0052B4"/>
<path d="M25 34.5138C29.8024 34.5138 33.6956 30.6206 33.6956 25.8182C33.6956 21.0157 29.8024 17.1226 25 17.1226C20.1975 17.1226 16.3044 21.0157 16.3044 25.8182C16.3044 30.6206 20.1975 34.5138 25 34.5138Z" fill="#FFDA44"/>
<path d="M25 31.2529C22.0032 31.2529 19.5652 28.8148 19.5652 25.8182V22.5573C19.5652 19.5605 22.0033 17.1226 25 17.1226C27.9967 17.1226 30.4348 19.5606 30.4348 22.5573V25.8182C30.4348 28.8149 27.9968 31.2529 25 31.2529Z" fill="#338AF3"/>
<path d="M33.6956 12.7747H27.1738C27.1738 11.5741 26.2005 10.6008 24.9999 10.6008C23.7993 10.6008 22.826 11.5741 22.826 12.7747H16.3042C16.3042 13.9754 17.35 14.9486 18.5505 14.9486H18.4781C18.4781 16.1493 19.4514 17.1225 20.6521 17.1225C20.6521 18.3232 21.6253 19.2965 22.826 19.2965H27.1738C28.3745 19.2965 29.3478 18.3232 29.3478 17.1225C30.5484 17.1225 31.5217 16.1493 31.5217 14.9486H31.4493C32.6499 14.9486 33.6956 13.9753 33.6956 12.7747V12.7747Z" fill="black"/>
</g>
<defs>
<clipPath id="clip0_402_165">
<rect width="50" height="50" fill="white" transform="translate(0 0.818176)"/>
</clipPath>
</defs>
</svg>
