<svg width="50" height="51" viewBox="0 0 50 51" fill="none" xmlns="http://www.w3.org/2000/svg">
<g clip-path="url(#clip0_402_165)">
<path d="M50 25.8182C50 39.6252 38.807 50.8182 25 50.8182C11.193 50.8182 0 39.6252 0 25.8182C0 25.824 25 0.821008 25 0.818176C38.807 0.818176 50 12.0111 50 25.8182Z" fill="#0052B4"/>
<path d="M25 0.818176C24.9986 0.818176 24.9972 0.818274 24.9958 0.818274L25 0.818176Z" fill="#F0F0F0"/>
<path d="M24.9331 25.8182H25C25 25.7955 25 25.7738 25 25.7513C24.9777 25.7736 24.9555 25.7959 24.9331 25.8182Z" fill="#F0F0F0"/>
<path d="M25 13.8618C25 9.46283 25 6.58031 25 0.818298H24.9958C11.1906 0.820544 0 12.0124 0 25.8182H13.0435V18.4733L20.3884 25.8182H24.9332C24.9556 25.7959 24.9778 25.7737 25.0001 25.7513C25.0001 24.067 25.0001 22.5642 25.0001 21.2068L17.6551 13.8618H25Z" fill="#F0F0F0"/>
<path d="M12.648 4.07904C8.73791 6.30551 5.48733 9.55609 3.26086 13.4661V25.8182H9.78264V10.6009V10.6008H25C25 8.54388 25 6.58431 25 4.07904H12.648Z" fill="#D80027"/>
<path d="M25 22.7439L16.1179 13.8619H13.0436C13.0436 13.8618 13.0436 13.8619 13.0436 13.8619L24.9999 25.8182H25C25 25.8182 25 23.6986 25 22.7439Z" fill="#D80027"/>
<path d="M15.0776 30.166L16.4497 33.035L19.548 32.3188L18.1605 35.1804L20.6521 37.1562L17.5499 37.8555L17.5586 41.0355L15.0776 39.046L12.5968 41.0355L12.6055 37.8555L9.50311 37.1562L11.9948 35.1804L10.6071 32.3188L13.7057 33.035L15.0776 30.166Z" fill="#F0F0F0"/>
<path d="M37.4301 35.6008L38.1161 37.0352L39.6653 36.6771L38.9715 38.1079L40.2174 39.0959L38.6662 39.4455L38.6705 41.0355L37.4301 40.0407L36.1897 41.0355L36.194 39.4455L34.6429 39.0959L35.8887 38.1079L35.1949 36.6771L36.7441 37.0352L37.4301 35.6008Z" fill="#F0F0F0"/>
<path d="M31.0481 20.3834L31.734 21.8179L33.2833 21.4597L32.5895 22.8905L33.8353 23.8785L32.2842 24.2281L32.2884 25.8181L31.0481 24.8233L29.8077 25.8181L29.8119 24.2281L28.2608 23.8785L29.5066 22.8905L28.8129 21.4597L30.3621 21.8179L31.0481 20.3834Z" fill="#F0F0F0"/>
<path d="M37.4301 11.6877L38.1161 13.1223L39.6653 12.7641L38.9716 14.1949L40.2173 15.1828L38.6662 15.5325L38.6705 17.1225L37.4301 16.1277L36.1897 17.1225L36.194 15.5325L34.6429 15.1828L35.8886 14.1949L35.1949 12.7641L36.7441 13.1223L37.4301 11.6877Z" fill="#F0F0F0"/>
<path d="M43.0047 18.2095L43.6906 19.644L45.2398 19.2858L44.5461 20.7166L45.7919 21.7046L44.2407 22.0543L44.245 23.6442L43.0047 22.6495L41.7642 23.6442L41.7684 22.0543L40.2173 21.7046L41.4631 20.7166L40.7694 19.2858L42.3185 19.644L43.0047 18.2095Z" fill="#F0F0F0"/>
<path d="M39.0186 25.8182L39.5581 27.4789H41.3044L39.8916 28.5054L40.4314 30.166L39.0186 29.1397L37.6059 30.166L38.1454 28.5054L36.7327 27.4789H38.4789L39.0186 25.8182Z" fill="#F0F0F0"/>
</g>
<defs>
<clipPath id="clip0_402_165">
<rect width="50" height="50" fill="white" transform="translate(0 0.818176)"/>
</clipPath>
</defs>
</svg>
