<svg width="50" height="51" viewBox="0 0 50 51" fill="none" xmlns="http://www.w3.org/2000/svg">
<g clip-path="url(#clip0_402_173)">
<path d="M25 50.8182C38.8071 50.8182 50 39.6253 50 25.8182C50 12.0111 38.8071 0.818176 25 0.818176C11.1929 0.818176 0 12.0111 0 25.8182C0 39.6253 11.1929 50.8182 25 50.8182Z" fill="#D80027"/>
<path d="M25 37.7747C31.6034 37.7747 36.9565 32.4216 36.9565 25.8182C36.9565 19.2148 31.6034 13.8616 25 13.8616C18.3966 13.8616 13.0435 19.2148 13.0435 25.8182C13.0435 32.4216 18.3966 37.7747 25 37.7747Z" fill="#F0F0F0"/>
<path d="M26.473 21.2465L28.5242 24.0732L31.8462 22.996L29.7918 25.8203L31.8427 28.6468L28.5218 27.5656L26.4675 30.3898L26.4696 26.8975L23.1488 25.8162L26.4709 24.7391L26.473 21.2465Z" fill="#D80027"/>
<path d="M27.7174 32.8834C23.8155 32.8834 20.6522 29.7202 20.6522 25.8182C20.6522 21.9162 23.8155 18.753 27.7174 18.753C28.934 18.753 30.0789 19.0606 31.0783 19.6022C29.5104 18.0689 27.3664 17.1225 25 17.1225C20.1977 17.1225 16.3044 21.0157 16.3044 25.8181C16.3044 30.6205 20.1977 34.5137 25 34.5137C27.3664 34.5137 29.5105 33.5673 31.0783 32.034C30.0789 32.5758 28.934 32.8834 27.7174 32.8834Z" fill="#D80027"/>
</g>
<defs>
<clipPath id="clip0_402_173">
<rect width="50" height="50" fill="white" transform="translate(0 0.818176)"/>
</clipPath>
</defs>
</svg>
