<svg width="50" height="51" viewBox="0 0 50 51" fill="none" xmlns="http://www.w3.org/2000/svg">
<g clip-path="url(#clip0_402_173)">
<path d="M25 50.8182C38.8071 50.8182 50 39.6253 50 25.8182C50 12.0111 38.8071 0.818176 25 0.818176C11.1929 0.818176 0 12.0111 0 25.8182C0 39.6253 11.1929 50.8182 25 50.8182Z" fill="#F0F0F0"/>
<path d="M33.6957 25.8182C33.6957 27.9921 29.8025 33.4269 25 33.4269C20.1976 33.4269 16.3044 27.9921 16.3044 25.8182C16.3044 21.0156 20.1976 17.1226 25 17.1226C29.8025 17.1226 33.6957 21.0156 33.6957 25.8182Z" fill="#D80027"/>
<path d="M33.6957 25.8182C33.6957 30.6207 29.8025 34.5138 25 34.5138C20.1976 34.5138 16.3044 30.6207 16.3044 25.8182" fill="#0052B4"/>
<path d="M34.2163 33.5045L36.5217 31.1991L38.0587 32.7361L35.7533 35.0415L34.2163 33.5045Z" fill="black"/>
<path d="M30.3728 37.347L32.6782 35.0416L34.2152 36.5785L31.9098 38.884L30.3728 37.347Z" fill="black"/>
<path d="M38.8275 38.1151L41.1329 35.8097L42.6699 37.3467L40.3645 39.6521L38.8275 38.1151Z" fill="black"/>
<path d="M34.9841 41.9583L37.2895 39.6528L38.8265 41.1898L36.5211 43.4952L34.9841 41.9583Z" fill="black"/>
<path d="M36.5217 35.81L38.8271 33.5046L40.3641 35.0415L38.0587 37.347L36.5217 35.81Z" fill="black"/>
<path d="M32.6793 39.6525L34.9847 37.3471L36.5217 38.884L34.2163 41.1894L32.6793 39.6525Z" fill="black"/>
<path d="M38.8376 18.136L32.6899 11.9883L34.2268 10.4513L40.3746 16.5991L38.8376 18.136Z" fill="black"/>
<path d="M32.6887 16.5997L30.3833 14.2943L31.9202 12.7574L34.2256 15.0628L32.6887 16.5997Z" fill="black"/>
<path d="M36.5311 20.4431L34.2257 18.1376L35.7626 16.6007L38.068 18.9062L36.5311 20.4431Z" fill="black"/>
<path d="M37.2991 11.9881L34.9937 9.68269L36.5306 8.14572L38.836 10.4511L37.2991 11.9881Z" fill="black"/>
<path d="M41.1436 15.8318L38.8381 13.5264L40.3751 11.9895L42.6805 14.2949L41.1436 15.8318Z" fill="black"/>
<path d="M8.86279 35.8057L15.0106 41.9535L13.4736 43.4904L7.32583 37.3426L8.86279 35.8057Z" fill="black"/>
<path d="M15.0103 37.3414L17.3157 39.6468L15.7788 41.1837L13.4734 38.8783L15.0103 37.3414Z" fill="black"/>
<path d="M11.1675 33.4998L13.4729 35.8052L11.9359 37.3421L9.63052 35.0367L11.1675 33.4998Z" fill="black"/>
<path d="M13.4731 31.1937L19.6209 37.3415L18.084 38.8785L11.9362 32.7307L13.4731 31.1937Z" fill="black"/>
<path d="M15.0099 9.67792L8.8621 15.8257L7.32513 14.2887L13.4729 8.14095L15.0099 9.67792Z" fill="black"/>
<path d="M17.3153 11.9831L11.1675 18.1309L9.63055 16.5939L15.7783 10.4461L17.3153 11.9831Z" fill="black"/>
<path d="M19.6229 14.2899L13.4751 20.4376L11.9382 18.9008L18.086 12.753L19.6229 14.2899Z" fill="black"/>
</g>
<defs>
<clipPath id="clip0_402_173">
<rect width="50" height="50" fill="white" transform="translate(0 0.818176)"/>
</clipPath>
</defs>
</svg>
