<svg width="50" height="51" viewBox="0 0 50 51" fill="none" xmlns="http://www.w3.org/2000/svg">
<g clip-path="url(#clip0_402_173)">
<path d="M25 50.8182C38.8071 50.8182 50 39.6253 50 25.8182C50 12.0111 38.8071 0.818176 25 0.818176C11.1929 0.818176 0 12.0111 0 25.8182C0 39.6253 11.1929 50.8182 25 50.8182Z" fill="#F0F0F0"/>
<path d="M48.445 17.1226H1.55498C0.550098 19.8309 0 22.7602 0 25.8182C0 28.8762 0.550098 31.8055 1.55498 34.5138H48.4451C49.45 31.8055 50 28.8762 50 25.8182C50 22.7602 49.45 19.8309 48.445 17.1226Z" fill="#D80027"/>
<path d="M25 0.818176C17.4227 0.818176 10.6334 4.18966 6.04871 9.51378H43.9511C39.3666 4.18966 32.5772 0.818176 25 0.818176V0.818176Z" fill="#0052B4"/>
<path d="M43.9512 42.1226H6.04871C10.6334 47.4467 17.4227 50.8182 25 50.8182C32.5772 50.8182 39.3666 47.4467 43.9512 42.1226Z" fill="#0052B4"/>
</g>
<defs>
<clipPath id="clip0_402_173">
<rect width="50" height="50" fill="white" transform="translate(0 0.818176)"/>
</clipPath>
</defs>
</svg>
