<svg width="50" height="51" viewBox="0 0 50 51" fill="none" xmlns="http://www.w3.org/2000/svg">
<g clip-path="url(#clip0_402_173)">
<path d="M25 50.8182C38.8071 50.8182 50 39.6253 50 25.8182C50 12.0111 38.8071 0.818176 25 0.818176C11.1929 0.818176 0 12.0111 0 25.8182C0 39.6253 11.1929 50.8182 25 50.8182Z" fill="#F0F0F0"/>
<path d="M50 25.8182C50 39.6252 38.807 50.8182 25 50.8182C11.193 50.8182 0 39.6252 0 25.8182" fill="#496E2D"/>
<path d="M43.263 18.215C42.369 15.6795 39.9533 13.8618 37.112 13.8618H31.5217C27.9199 13.8618 25 16.7817 25 20.3835C25 21.5603 25.3132 22.6912 25.8584 23.6444C23.7826 23.6274 21.8614 23.6587 20.6521 23.6444C20.6521 21.1291 20.6521 17.925 20.6521 17.2546L20.9089 16.9978C22.0619 15.8449 21.6774 13.9234 21.6774 13.9234C21.6774 13.9234 19.7561 13.5391 18.6032 14.692L17.2595 16.0357H15.7608C12.459 16.0357 9.78257 18.7122 9.78257 22.0139H14.1304V26.9052C14.1304 27.6206 14.2747 28.3022 14.5353 28.9229L13.0434 30.1661H10.8695V27.9921H8.69556V32.34H18.4782V36.6878H16.3042V38.8618H20.6521V34.5139L22.6448 32.1226H27.355L29.3477 34.5139V36.6878H27.1738V38.8618H35.8694V26.9051C35.8694 25.1042 37.3293 23.6443 39.1302 23.6443C39.1765 23.6443 39.2224 23.6459 39.2683 23.6478C39.1783 23.2994 39.1302 22.934 39.1302 22.5574C39.1304 20.2284 40.9618 18.3272 43.263 18.215V18.215ZM31.5217 36.6877V32.1225H31.7029L33.6956 34.5138V36.6877H31.5217Z" fill="#D80027"/>
</g>
<defs>
<clipPath id="clip0_402_173">
<rect width="50" height="50" fill="white" transform="translate(0 0.818176)"/>
</clipPath>
</defs>
</svg>
