<svg width="50" height="51" viewBox="0 0 50 51" fill="none" xmlns="http://www.w3.org/2000/svg">
<g clip-path="url(#clip0_402_173)">
<path d="M25 50.8182C38.8071 50.8182 50 39.6253 50 25.8182C50 12.0111 38.8071 0.818176 25 0.818176C11.1929 0.818176 0 12.0111 0 25.8182C0 39.6253 11.1929 50.8182 25 50.8182Z" fill="#F0F0F0"/>
<path d="M49.7884 22.5573H28.261H28.2609V1.0298C27.1935 0.890833 26.1052 0.818176 25 0.818176C23.8948 0.818176 22.8065 0.890833 21.7392 1.0298V22.5571V22.5572H0.211621C0.0726563 23.6247 0 24.7128 0 25.8182C0 26.9235 0.0726563 28.0116 0.211621 29.079H21.739H21.7391V50.6066C22.8065 50.7455 23.8948 50.8182 25 50.8182C26.1052 50.8182 27.1935 50.7456 28.2608 50.6066V29.0792V29.0791H49.7884C49.9273 28.0116 50 26.9235 50 25.8182C50 24.7128 49.9273 23.6247 49.7884 22.5573V22.5573Z" fill="#D80027"/>
</g>
<defs>
<clipPath id="clip0_402_173">
<rect width="50" height="50" fill="white" transform="translate(0 0.818176)"/>
</clipPath>
</defs>
</svg>
