<svg width="50" height="51" viewBox="0 0 50 51" fill="none" xmlns="http://www.w3.org/2000/svg">
<g clip-path="url(#clip0_402_173)">
<path d="M25 50.8182C38.8071 50.8182 50 39.6253 50 25.8182C50 12.0111 38.8071 0.818176 25 0.818176C11.1929 0.818176 0 12.0111 0 25.8182C0 39.6253 11.1929 50.8182 25 50.8182Z" fill="#D80027"/>
<path d="M39.7743 21.3348H28.4877L25 10.6008L21.5124 21.3348H10.2258L19.3568 27.9687L15.869 38.703L25 32.0689L34.1311 38.7031L30.6433 27.9688L39.7743 21.3348ZM21.9124 27.1384L23.0917 23.5086H26.9083L28.0877 27.1384V27.1385L25 29.3817L21.9125 27.1385L21.9124 27.1384ZM26.202 21.3348H23.7982L25 17.6355L26.202 21.3348ZM29.9369 25.7949L29.194 23.5087H33.0835L29.9369 25.7949ZM20.806 23.5087L20.0631 25.7949L16.9164 23.5087H20.806ZM20.0041 33.0116L21.206 29.3125L23.1508 30.7254L20.0041 33.0116ZM26.8493 30.7255L28.7941 29.3126L29.996 33.0117L26.8493 30.7255Z" fill="#FFDA44"/>
</g>
<defs>
<clipPath id="clip0_402_173">
<rect width="50" height="50" fill="white" transform="translate(0 0.818176)"/>
</clipPath>
</defs>
</svg>
