<svg width="50" height="51" viewBox="0 0 50 51" fill="none" xmlns="http://www.w3.org/2000/svg">
<g clip-path="url(#clip0_402_165)">
<path d="M1.55499 34.5138C5.08732 44.0337 14.2509 50.8182 25 50.8182C35.7491 50.8182 44.9127 44.0337 48.445 34.5138L25 32.34L1.55499 34.5138Z" fill="#FFDA44"/>
<path d="M25 0.818176C14.2509 0.818176 5.08732 7.60255 1.55499 17.1226L25 19.2964L48.445 17.1225C44.9127 7.60255 35.7491 0.818176 25 0.818176Z" fill="black"/>
<path d="M1.55498 17.1226C0.550098 19.8309 0 22.7602 0 25.8182C0 28.8762 0.550098 31.8055 1.55498 34.5138H48.4451C49.45 31.8055 50 28.8762 50 25.8182C50 22.7602 49.45 19.8309 48.445 17.1226H1.55498Z" fill="#D80027"/>
</g>
<defs>
<clipPath id="clip0_402_165">
<rect width="50" height="50" fill="white" transform="translate(0 0.818176)"/>
</clipPath>
</defs>
</svg>
