<svg width="50" height="51" viewBox="0 0 50 51" fill="none" xmlns="http://www.w3.org/2000/svg">
<g clip-path="url(#clip0_402_173)">
<path d="M35.8695 3.29884C32.5828 1.70958 28.8955 0.818176 25 0.818176C21.1045 0.818176 17.4172 1.70958 14.1305 3.29884L11.9565 25.8182L14.1305 48.3375C17.4172 49.9268 21.1045 50.8182 25 50.8182C28.8955 50.8182 32.5828 49.9268 35.8695 48.3375L38.0435 25.8182L35.8695 3.29884Z" fill="#D80027"/>
<path d="M24.9998 17.1226L27.158 23.765H34.1431L28.4924 27.8709L30.6507 34.5138L24.9998 30.4082L19.3489 34.5138L21.5076 27.8709L15.8568 23.765H22.8415L24.9998 17.1226Z" fill="#FFDA44"/>
<path d="M14.1305 3.29974C5.76816 7.3433 0 15.9067 0 25.8182C0 35.7297 5.76816 44.2931 14.1305 48.3367V3.29974Z" fill="#496E2D"/>
<path d="M35.8695 3.29974V48.3367C44.2318 44.2931 50 35.7296 50 25.8182C50 15.9068 44.2318 7.3433 35.8695 3.29974Z" fill="#FFDA44"/>
</g>
<defs>
<clipPath id="clip0_402_173">
<rect width="50" height="50" fill="white" transform="translate(0 0.818176)"/>
</clipPath>
</defs>
</svg>
