<svg width="50" height="51" viewBox="0 0 50 51" fill="none" xmlns="http://www.w3.org/2000/svg">
<g clip-path="url(#clip0_402_173)">
<path d="M25 50.8182C38.8071 50.8182 50 39.6253 50 25.8182C50 12.0111 38.8071 0.818176 25 0.818176C11.1929 0.818176 0 12.0111 0 25.8182C0 39.6253 11.1929 50.8182 25 50.8182Z" fill="#F0F0F0"/>
<path d="M19.5654 22.5573H49.7884C48.1905 10.291 37.7019 0.818176 25.0001 0.818176C23.1334 0.818176 21.3153 1.02452 19.5653 1.41241V22.5573H19.5654Z" fill="#D80027"/>
<path d="M13.0435 22.5572V3.85791C6.17895 7.60342 1.2647 14.4736 0.21167 22.5573H13.0435V22.5572Z" fill="#D80027"/>
<path d="M13.0434 29.079H0.21167C1.2647 37.1627 6.17895 44.0329 13.0435 47.7784L13.0434 29.079Z" fill="#D80027"/>
<path d="M19.5653 29.0791V50.224C21.3153 50.6119 23.1334 50.8182 25.0001 50.8182C37.7019 50.8182 48.1905 41.3453 49.7884 29.079H19.5653V29.0791Z" fill="#D80027"/>
</g>
<defs>
<clipPath id="clip0_402_173">
<rect width="50" height="50" fill="white" transform="translate(0 0.818176)"/>
</clipPath>
</defs>
</svg>
