<svg width="50" height="51" viewBox="0 0 50 51" fill="none" xmlns="http://www.w3.org/2000/svg">
<g clip-path="url(#clip0_402_173)">
<path d="M25 50.8182C38.8071 50.8182 50 39.6253 50 25.8182C50 12.0111 38.8071 0.818176 25 0.818176C11.1929 0.818176 0 12.0111 0 25.8182C0 39.6253 11.1929 50.8182 25 50.8182Z" fill="#F0F0F0"/>
<path d="M23.9131 25.8182H50C50 23.5617 49.6992 21.3758 49.1388 19.2964H23.9131V25.8182Z" fill="#D80027"/>
<path d="M23.9131 12.7747H46.3307C44.8003 10.2774 42.8436 8.07012 40.5621 6.25293H23.9131V12.7747Z" fill="#D80027"/>
<path d="M25 50.8182C30.8837 50.8182 36.2916 48.7846 40.5621 45.3834H9.43787C13.7084 48.7846 19.1163 50.8182 25 50.8182Z" fill="#D80027"/>
<path d="M3.66931 38.8616H46.3306C47.5593 36.8568 48.5121 34.6654 49.1387 32.3398H0.861206C1.48787 34.6654 2.4407 36.8568 3.66931 38.8616V38.8616Z" fill="#D80027"/>
<path d="M11.5805 4.72228H13.8587L11.7396 6.26183L12.549 8.75294L10.43 7.21339L8.31094 8.75294L9.01016 6.60089C7.14434 8.15509 5.50898 9.97599 4.16133 12.0049H4.89131L3.54238 12.9849C3.33223 13.3355 3.13066 13.6916 2.9375 14.053L3.58164 16.0356L2.37988 15.1624C2.08115 15.7953 1.80791 16.4425 1.5623 17.1031L2.27197 19.2875H4.89131L2.77217 20.8271L3.58164 23.3182L1.4626 21.7786L0.193262 22.7009C0.0662109 23.7222 0 24.7624 0 25.8182H25C25 12.0111 25 10.3834 25 0.818176C20.0613 0.818176 15.4575 2.25079 11.5805 4.72228V4.72228ZM12.549 23.3182L10.43 21.7786L8.31094 23.3182L9.12041 20.8271L7.00127 19.2875H9.62061L10.43 16.7964L11.2394 19.2875H13.8587L11.7396 20.8271L12.549 23.3182ZM11.7396 13.5444L12.549 16.0356L10.43 14.496L8.31094 16.0356L9.12041 13.5444L7.00127 12.0049H9.62061L10.43 9.51378L11.2394 12.0049H13.8587L11.7396 13.5444ZM21.5164 23.3182L19.3974 21.7786L17.2783 23.3182L18.0878 20.8271L15.9687 19.2875H18.588L19.3974 16.7964L20.2067 19.2875H22.8261L20.7069 20.8271L21.5164 23.3182ZM20.7069 13.5444L21.5164 16.0356L19.3974 14.496L17.2783 16.0356L18.0878 13.5444L15.9687 12.0049H18.588L19.3974 9.51378L20.2067 12.0049H22.8261L20.7069 13.5444ZM20.7069 6.26183L21.5164 8.75294L19.3974 7.21339L17.2783 8.75294L18.0878 6.26183L15.9687 4.72228H18.588L19.3974 2.23116L20.2067 4.72228H22.8261L20.7069 6.26183Z" fill="#0052B4"/>
</g>
<defs>
<clipPath id="clip0_402_173">
<rect width="50" height="50" fill="white" transform="translate(0 0.818176)"/>
</clipPath>
</defs>
</svg>
