<svg width="50" height="51" viewBox="0 0 50 51" fill="none" xmlns="http://www.w3.org/2000/svg">
<g clip-path="url(#clip0_402_165)">
<path d="M25 50.8182C38.8071 50.8182 50 39.6253 50 25.8182C50 12.0111 38.8071 0.818176 25 0.818176C11.1929 0.818176 0 12.0111 0 25.8182C0 39.6253 11.1929 50.8182 25 50.8182Z" fill="#F0F0F0"/>
<path d="M50 25.8182C50 12.0111 38.807 0.818176 25 0.818176C20.1094 0.818176 15.5474 2.22394 11.6941 4.65128L17.1739 6.9795L9.78259 10.1199L17.1739 13.2603L9.78259 16.4005L17.1739 19.5406L9.78259 22.6804L17.1739 25.8199L9.78259 28.9602L17.1739 32.1002L9.78259 35.24L17.1739 38.38L9.78259 41.5202L17.1739 44.66L11.6966 46.9869C15.5494 49.4131 20.1103 50.8182 25 50.8182C38.807 50.8182 50 39.6252 50 25.8182Z" fill="#751A46"/>
</g>
<defs>
<clipPath id="clip0_402_165">
<rect width="50" height="50" fill="white" transform="translate(0 0.818176)"/>
</clipPath>
</defs>
</svg>
