<svg width="50" height="51" viewBox="0 0 50 51" fill="none" xmlns="http://www.w3.org/2000/svg">
<g clip-path="url(#clip0_402_173)">
<path d="M50 25.8182C50 22.7602 49.4499 19.8308 48.445 17.1226L25 16.0356L1.55498 17.1225C0.550098 19.8308 0 22.7602 0 25.8182C0 28.8762 0.550098 31.8056 1.55498 34.5138L25 35.6008L48.445 34.5139C49.4499 31.8056 50 28.8762 50 25.8182Z" fill="#F0F0F0"/>
<path d="M25 50.8182C35.7491 50.8182 44.9126 44.0338 48.445 34.5138H1.55493C5.08726 44.0338 14.2508 50.8182 25 50.8182Z" fill="#0052B4"/>
<path d="M1.55493 17.1226H48.4451C44.9126 7.60255 35.7491 0.818176 25 0.818176C14.2508 0.818176 5.08726 7.60255 1.55493 17.1226V17.1226Z" fill="#D80027"/>
<path d="M31.5218 18.2096H27.174L27.8987 12.7747L30.7971 10.6008L33.6956 12.7747V17.1225L31.5218 18.2096Z" fill="#338AF3"/>
<path d="M18.4783 18.2096H22.8261L22.1014 12.7747L19.2029 10.6008L16.3044 12.7747V17.1225L18.4783 18.2096Z" fill="#338AF3"/>
<path d="M27.8986 18.2096H22.1013V12.7747L25 10.6008L27.8986 12.7747V18.2096Z" fill="#0052B4"/>
<path d="M16.3044 17.1227V29.0791C16.3044 31.9261 17.6796 34.4579 19.8007 36.0451L21.3225 35.6644L23.2428 37.5962C23.8107 37.7132 24.3983 37.7748 25.0001 37.7748C25.5988 37.7748 26.1834 37.714 26.7483 37.5982L28.9404 35.773L30.1994 36.0416C32.3196 34.4545 33.6958 31.9253 33.6958 29.0791V17.1227H16.3044Z" fill="#F0F0F0"/>
<path d="M16.3044 17.1226H19.7827V20.6008H16.3044V17.1226Z" fill="#D80027"/>
<path d="M23.2609 17.1226H26.7391V20.6008H23.2609V17.1226Z" fill="#D80027"/>
<path d="M30.2174 17.1226H33.6956V20.6008H30.2174V17.1226Z" fill="#D80027"/>
<path d="M19.7827 20.6008H23.2609V24.079H19.7827V20.6008Z" fill="#D80027"/>
<path d="M26.7393 20.6008H30.2175V24.079H26.7393V20.6008Z" fill="#D80027"/>
<path d="M16.3044 24.0779H19.7827V27.5562H16.3044V24.0779Z" fill="#D80027"/>
<path d="M19.7827 27.5563H23.2609V31.0345H19.7827V27.5563Z" fill="#D80027"/>
<path d="M23.2609 24.0779H26.7391V27.5562H23.2609V24.0779Z" fill="#D80027"/>
<path d="M30.2174 24.0779H33.6956V27.5562H30.2174V24.0779Z" fill="#D80027"/>
<path d="M26.7393 27.5563H30.2175V31.0345H26.7393V27.5563Z" fill="#D80027"/>
<path d="M23.2609 31.0345H26.7391V34.5127H23.2609V31.0345Z" fill="#D80027"/>
<path d="M19.7826 31.0348H16.5288C16.8272 32.3278 17.414 33.5109 18.2185 34.513H19.7826V31.0348Z" fill="#D80027"/>
<path d="M30.2174 34.5131H31.7815C32.5862 33.5109 33.1727 32.3277 33.4711 31.0349H30.2174V34.5131Z" fill="#D80027"/>
<path d="M19.7827 34.5131V36.0307C20.7943 36.792 21.9766 37.3378 23.2609 37.5997V34.5131H19.7827Z" fill="#D80027"/>
<path d="M26.7393 34.5131V37.5997C28.0237 37.338 29.2059 36.792 30.2175 36.0307V34.5131H26.7393Z" fill="#D80027"/>
</g>
<defs>
<clipPath id="clip0_402_173">
<rect width="50" height="50" fill="white" transform="translate(0 0.818176)"/>
</clipPath>
</defs>
</svg>
