<svg width="50" height="51" viewBox="0 0 50 51" fill="none" xmlns="http://www.w3.org/2000/svg">
<g clip-path="url(#clip0_402_173)">
<path d="M25 50.8182C38.8071 50.8182 50 39.6253 50 25.8182C50 12.0111 38.8071 0.818176 25 0.818176C11.1929 0.818176 0 12.0111 0 25.8182C0 39.6253 11.1929 50.8182 25 50.8182Z" fill="#F0F0F0"/>
<path d="M50 25.8182C50 15.9066 44.2319 7.34258 35.8695 3.29883V48.3374C44.2319 44.2938 50 35.7297 50 25.8182V25.8182Z" fill="#D80027"/>
<path d="M0 25.8182C0 35.7297 5.76807 44.2937 14.1305 48.3375V3.29883C5.76807 7.34258 0 15.9066 0 25.8182Z" fill="#D80027"/>
<path d="M29.3479 29.079L33.6957 26.9051L31.5218 25.8182V23.6442L27.174 25.8182L29.3479 21.4703H27.174L25 18.2095L22.8261 21.4703H20.6522L22.8261 25.8182L18.4783 23.6442V25.8182L16.3044 26.9051L20.6522 29.079L19.5653 31.2529H23.9131V34.5138H26.087V31.2529H30.4348L29.3479 29.079Z" fill="#D80027"/>
</g>
<defs>
<clipPath id="clip0_402_173">
<rect width="50" height="50" fill="white" transform="translate(0 0.818176)"/>
</clipPath>
</defs>
</svg>
